<svg width="26" height="24" viewBox="0 0 26 24" fill="none" xmlns="http://www.w3.org/2000/svg">
<path d="M24.602 8.05923L17.775 7.06529L14.7242 0.890383C14.4499 0.33861 13.915 0.0596924 13.38 0.0596924C12.8483 0.0596924 12.317 0.334879 12.0418 0.890383L8.99006 7.06482L2.16264 8.05783C0.938288 8.23507 0.447617 9.74113 1.33521 10.604L6.27411 15.4081L5.10527 22.1936C4.93922 23.1628 5.71301 23.9403 6.57961 23.9403C6.80956 23.9403 7.04603 23.8857 7.27318 23.7654L13.3809 20.562L19.4882 23.7663C19.7149 23.8853 19.9509 23.9394 20.1799 23.9394C21.0474 23.9394 21.8226 23.1646 21.6566 22.195L20.4891 15.409L25.429 10.6059C26.317 9.74299 25.8263 8.23646 24.602 8.05923ZM18.9238 13.8055L18.0787 14.6273L18.2783 15.7878L19.1888 21.0793L14.4252 18.5797L13.3814 18.0322L13.3828 3.23786L15.7629 8.05549L16.2844 9.111L17.4509 9.28077L22.7788 10.0564L18.9238 13.8055Z" fill="#FBB224"/>
</svg>
